<svg id="Capa_1" data-name="Capa 1" xmlns="http://www.w3.org/2000/svg" viewBox="0 0 500 500"><defs><style>.cls-1{fill:#8ed3cc;}.cls-2{fill:#e082a8;}</style></defs><path class="cls-1" d="M104.92,391.94a160.38,160.38,0,0,1-49.17-7.52q-23.49-7.51-38-24.94t-14.53-47A163.23,163.23,0,0,1,15.3,251,228.9,228.9,0,0,1,47.76,195,243.63,243.63,0,0,1,93.3,150.21q22.26-17,51.58-27.61a170,170,0,0,1,58.37-10.66,145,145,0,0,1,22.77,1.7,79.71,79.71,0,0,1,21.8,7,45.12,45.12,0,0,1,15.5,10.9,21.65,21.65,0,0,1,5.82,14.78v2.42a5.4,5.4,0,0,1-.49,2.42q-1.93,7.75-9,17.68a87.32,87.32,0,0,0-10.9,20.59c-.33,1.29-2.1,2.34-5.33,3.15s-4.52.56-3.87-.73a52.51,52.51,0,0,0,6-15.5A79.22,79.22,0,0,0,247.82,158a66,66,0,0,0-1.21-12.84,28.79,28.79,0,0,0-4.12-10.41,25.73,25.73,0,0,0-15-12.11,68.53,68.53,0,0,0-21.8-3.4,104.77,104.77,0,0,0-22.28,2.43A162.53,162.53,0,0,0,164,127q-28.11,10.17-53.77,32A235.57,235.57,0,0,0,69.8,205a250.6,250.6,0,0,0-27.86,53.77q-10.15,27.61-10.17,52.8,0,25.68,11.14,40.69A60.11,60.11,0,0,0,72,373.52a116,116,0,0,0,38.75,6.31A175,175,0,0,0,147.3,376a216.72,216.72,0,0,0,33.19-9.69,217.81,217.81,0,0,0,46.26-23.74q20.58-14,38.51-36.33c1.61-1.61,2.74-2.42,3.39-2.42,1,0,1.46.65,1.46,1.94q0,3.89-3.88,9.2a170,170,0,0,1-37.3,37.3,214.55,214.55,0,0,1-44.57,24.71,227.15,227.15,0,0,1-37.06,10.65A208.39,208.39,0,0,1,104.92,391.94Z"/><path class="cls-2" d="M347.12,394.36a135.34,135.34,0,0,1-35.6-5.09,88.26,88.26,0,0,1-32.94-16.71q-14.29-11.62-19.14-31a47.64,47.64,0,0,1-.72-5.32q-.25-2.91-.25-5.82a66,66,0,0,1,6.79-29.06q6.78-14,16.47-21.32h.48c.65,0,1.53.73,2.67,2.18s1,2.51-.24,3.15a29.29,29.29,0,0,0-7,10.9,37.72,37.72,0,0,0-2.18,12.84,58.7,58.7,0,0,0,3.15,18.65,60.82,60.82,0,0,0,8,16.23q12.1,16.95,33.67,26.88t42.38,9.93q28.58,0,44.33-17t15.74-41.66a82.85,82.85,0,0,0-5.81-30,216.53,216.53,0,0,0-20.59-40.93q-12.84-20.1-23.49-39.48-9.21-17.44-9.21-35.36,0-18.9,11.63-36.33,11.63-15.49,30.76-24.95a87.15,87.15,0,0,1,39-9.45,72.32,72.32,0,0,1,26.16,4.85,60,60,0,0,1,22.76,16q2.91,4.36,2.91,11.15,0,9.69-3.88,15a159.55,159.55,0,0,0-9.68,16.47q-5.34,10.17-6.3,14.05a45.29,45.29,0,0,1-4.6,1.7c-2.43.81-4,.72-4.61-.25a123,123,0,0,0,5.33-14,58.89,58.89,0,0,0,3.39-18.41q0-5.33-.24-11.87t-6.54-11.39a52.27,52.27,0,0,0-15-9.2q-9.2-3.87-22.28-3.87-26.64,0-40.69,15.5t-14.05,33.9a47,47,0,0,0,3.88,18.42,126.2,126.2,0,0,0,20.35,32.94q13.06,15.49,25.91,31.72a134.08,134.08,0,0,1,20.1,35.12,71.05,71.05,0,0,1,4.85,25.68,64.75,64.75,0,0,1-9.45,34.39,92.41,92.41,0,0,1-25.19,26.89,129.91,129.91,0,0,1-34.15,17.68A113.42,113.42,0,0,1,347.12,394.36Z"/><text/></svg>